<svg xmlns="http://www.w3.org/2000/svg" fill="none" viewBox="0 0 25 24"><g clip-path="url(#a)"><path fill="#41479B" d="M.952 19.762 12.8 12 .952 4.238a.407.407 0 0 0-.152.314v14.896c0 .128.061.238.152.314Z"/><path fill="#FF4B55" d="M.952 19.762c.072.06.16.1.261.1h23.173a.414.414 0 0 0 .413-.414V12h-12L.952 19.762Z"/><path fill="#F5F5F5" d="M.952 4.238c.072-.06.16-.1.261-.1h23.173c.228 0 .413.185.413.414V12h-12L.952 4.238Z"/></g><defs><clipPath id="a"><path fill="#fff" d="M.8 0h24v24H.8z"/></clipPath></defs></svg>