<svg xmlns="http://www.w3.org/2000/svg" fill="none" viewBox="0 0 266 32"><rect width="265.29" height="32" fill="#F4F9FB" rx="1.92"/><path fill="#097FB5" d="M13.268 23.742H9.573V9.301h9.341v3.437h-5.646v2.839h4.655v3.437h-4.655v4.728ZM30.755 9.063h.196l7.72 14.524-.113.155H34.77l-.888-1.92h-6.131l-.909 1.92h-3.685l-.113-.155 7.71-14.524Zm.092 6.204-1.59 3.345h3.139l-1.549-3.345ZM46.486 23.732h-3.685V9.29h3.685v7.236l4.955-7.236h3.933l.082.176-5.089 6.854 5.77 7.246-.082.176h-4.222l-5.347-6.844v6.834ZM68.442 23.742h-3.685v-10.85h-4.49V9.302h12.686v3.592h-4.5v10.849h-.01ZM80.778 17.125c0 .93.227 1.662.681 2.21.454.546 1.135.815 2.054.815.96 0 1.693-.29 2.199-.878.516-.588.774-1.342.774-2.27V9.062h3.685v8.589c0 1.662-.63 3.096-1.889 4.304-1.249 1.187-2.838 1.786-4.769 1.786-1.95 0-3.51-.558-4.676-1.672-1.166-1.115-1.755-2.498-1.755-4.17V9.062h3.685v8.062h.01ZM97.986 23.742H94.3V9.301h6.07c1.455 0 2.684.433 3.706 1.31 1.042.878 1.569 2.148 1.569 3.83 0 1.951-.733 3.407-2.189 4.367l2.757 4.78-.083.154h-3.768l-2.25-3.912h-2.137v3.912h.01Zm1.558-11.241h-1.569v4.118h1.27c.805 0 1.455-.196 1.94-.578.486-.382.723-.898.723-1.548 0-.64-.217-1.125-.661-1.476-.443-.351-1.001-.516-1.703-.516ZM118.042 9.063h.196l7.722 14.524-.114.155h-3.778l-.888-1.92h-6.131l-.909 1.92h-3.685l-.113-.155 7.7-14.524Zm.093 6.204-1.59 3.345h3.139l-1.549-3.345Z"/><path fill="#222" d="M145.12 16.533c0 2.01-.697 3.72-2.103 5.12-1.396 1.389-3.212 2.089-5.438 2.089-2.237 0-4.043-.7-5.418-2.09s-2.072-3.1-2.072-5.12c0-2.009.697-3.719 2.103-5.139 1.396-1.4 3.212-2.1 5.459-2.1 2.247 0 4.042.7 5.397 2.1 1.375 1.4 2.072 3.11 2.072 5.14Zm-3.704.02c0-1.11-.369-2.02-1.108-2.73-.718-.69-1.621-1.04-2.719-1.04-1.098 0-2.001.35-2.719 1.04-.718.69-1.077 1.6-1.077 2.73 0 1.06.369 1.93 1.098 2.64.759.71 1.662 1.06 2.708 1.06 1.037 0 1.94-.36 2.699-1.06.739-.71 1.118-1.59 1.118-2.64ZM152.912 23.512h-3.663V9.294h.206l9.532 7.429v-7.2h3.663v14.219h-.206l-9.532-7.55v7.32ZM176.064 20.252v3.49h-9.285V9.754h3.663v10.498h5.622ZM183.856 23.742h-3.663V9.754h3.663v13.988ZM191.648 23.512h-3.663V9.294h.206l9.532 7.429v-7.2h3.663v14.219h-.206l-9.532-7.55v7.32ZM214.8 20.412v3.33h-9.285V9.754h9.285v3.33h-5.622v2.409h4.627v3.11h-4.627v1.81h5.622ZM220.526 23.739c-.349.02-.657-.05-.924-.23-.266-.18-.451-.4-.564-.67a1.52 1.52 0 0 1-.082-.86c.051-.31.195-.56.421-.77.297-.3.677-.45 1.149-.45s.852.14 1.149.42c.298.29.452.63.452 1.03 0 .45-.154.82-.452 1.11-.297.29-.687.42-1.149.42ZM233.694 20.252c1.334 0 2.442-.57 3.335-1.71l2.699 2.47c-1.58 1.82-3.612 2.73-6.116 2.73-2.052 0-3.796-.69-5.232-2.07-1.416-1.39-2.124-3.12-2.124-5.17 0-2.069.718-3.789 2.165-5.159 1.446-1.36 3.211-2.05 5.284-2.05 2.267 0 4.176.8 5.735 2.39l-2.688 2.43c-.759-.88-1.765-1.32-2.996-1.32-1.118 0-2.032.38-2.74 1.14-.707.73-1.056 1.59-1.056 2.57 0 1.01.349 1.89 1.056 2.64.708.74 1.601 1.11 2.678 1.11ZM255.543 20.252v3.49h-11.604l-.082-.17 6.166-10.339h-5.202v-3.48h10.815l.082.17-6.187 10.33h6.012Z"/></svg>