<svg xmlns="http://www.w3.org/2000/svg" fill="none" viewBox="0 0 72 72"><g clip-path="url(#a)"><path fill="#fff" stroke="#222" stroke-width=".221" d="M11.64 13.73c5.117-5.226 11.356-8.701 20.186-9 11.94-.412 20.578 3.856 24.815 10.756 4.237 6.9 4.094 16.466-1.596 26.694-1.665 2.993-2.496 5.272-2.741 6.967-.245 1.696.094 2.825.795 3.49.699.661 1.729.833 2.806.678 1.079-.155 2.224-.64 3.177-1.318.377-.27.688-.444.93-.53.247-.088.393-.074.47-.021.072.05.128.166.11.405-.017.234-.103.555-.269.962-.375.904-1.136 1.89-2.223 2.89-1.086 1.001-2.492 2.012-4.152 2.967-3.319 1.91-7.642 3.59-12.42 4.514-9.556 1.848-20.912.665-29.684-7.753-7.384-7.076-10.132-14.82-8.39-23.54.182-.907.37-1.57.543-1.997.087-.215.167-.363.236-.453a.338.338 0 0 1 .081-.082.06.06 0 0 1 .017-.007c.003.001.01.007.02.02a.42.42 0 0 1 .052.119c.035.116.062.29.073.529.022.474-.015 1.175-.14 2.1l.11.015c-.39 2.843-.187 6.062.529 8.598L11.64 13.73Zm0 0c-1.977 2.015-4.03 5.53-5.585 9.6-.349.888-.545 1.566-.62 2.031a1.824 1.824 0 0 0-.027.524c.018.123.055.148.067.153.017.006.07.008.181-.068.104-.073.234-.199.385-.385.302-.37.677-.961 1.098-1.78L11.64 13.73Z"/><path fill="#097FB5" d="M56.999 37.72c3.324 2.504 5.612 3.3 9.414 4.995 1.327.59 2.316.503 3.433 1.432 2.001 1.666 2.602 3.774 2.1 6.33-.403 2.055-1.431 3.072-3.031 4.424-1.847 1.56-4.17.503-5.724 2.354-1.627 1.938-.842 3.831-2.241 5.94-2.039 3.07-4.261 5.097-7.87 3.236-2.398-1.237-.703-3.388-.662-6.085.03-2 1.865-3.554.583-5.09-1.053-1.263-2.459-.789-4.09-.996-4.926-.626-8.538 5.869-12.413 2.763-2.405-1.927-2.389-4.278-3-7.298-1.16-5.718-.241-9.569 2.472-14.734 2.01-3.827 2.953-8.236 7.275-8.344 2.392-.06 3.601 1.13 5.654 2.359 3.986 2.386 4.389 5.918 8.1 8.714Z"/><path stroke="#222" stroke-linecap="round" stroke-linejoin="round" stroke-miterlimit="1.5" stroke-width="1.857" d="M44.313 53.26c-9.16 2.054-10.644-1.645-12.072-7.444-1.805-7.334 2.126-20.671 10.629-22.045 5.407-.873 7.269 5.129 10.766 8.267 4.986 4.472 8.463 6.414 14.267 9.568 4.105 2.23 2.319 9.793-1.732 12.062-2.201 1.233-5.058.174-7.354-.1-4.82-.576-9.694-1.386-14.504-.308v0Z" clip-rule="evenodd"/><path stroke="#222" stroke-linecap="round" stroke-linejoin="round" stroke-miterlimit="1.5" stroke-width="1.857" d="M33.8 43.584c-.144-6.312 1.992-15.822 9.12-17.566 4.032-.7 5.788 5.14 6.176 8.186.807 6.338-2.365 15.853-9.505 17.166-4.236.78-5.717-4.58-5.79-7.786Z"/><path stroke="#222" stroke-linecap="round" stroke-linejoin="round" stroke-miterlimit="1.5" stroke-width="1.857" d="M41.413 35.682c1.548.59.936 3.343.432 5.013-.22.731-1.112 2.187-1.758 1.954-2.022-.729-.43-7.395 1.326-6.967Z" clip-rule="evenodd"/><path stroke="#222" stroke-linecap="round" stroke-linejoin="round" stroke-miterlimit="1.5" stroke-width="1.857" d="M56.855 53.345c2.999-1.93 4.904-6.763 5.6-10.096.316-1.518.438-3.187.004-4.699M67.535 46.62c-.126 1.11-.464 2.219-1.121 3.13M65.172 45.484c-.213 1.188-.701 2.285-1.515 3.229"/><path stroke="#222" stroke-linecap="round" stroke-linejoin="round" stroke-miterlimit="1.5" stroke-width="1.857" d="M54.382 53.005c1 .08 2.204.237 3.342.373-.402.922-.965 2.069-1.616 2.855-.279.338-.575.69-1.01.836a1.667 1.667 0 0 1-.549.072c-.54-.007-1.9-.07-2.001-.782-.066-.462.276-.958.522-1.326a43.98 43.98 0 0 0 1.263-2.036M31.385 52.552c-2.54.895-5.107 1.724-7.616 2.71.69-1.486.909-3.427 1.291-5.003-3.153-.13-6.372-.225-9.506-.547 1.82-1.916 3.412-4.415 4.85-6.598-3.038-.623-6.04-1.456-9.029-2.278 2.834-2.233 5.651-4.575 8.633-6.602-2.237-2.645-4.34-5.413-6.682-7.965 3.601-.278 7.192-.743 10.795-.997-1.216-2.903-2.721-5.716-4.036-8.577 4.088.97 8.053 2.363 12.178 3.21-.097-2.41-.26-4.816-.22-7.229 2.172 1.853 4.318 3.72 6.602 5.438a97 97 0 0 1 1.465-4.083c.909 1.995 1.621 4.072 2.322 6.147"/><path stroke="#222" stroke-linecap="round" stroke-linejoin="round" stroke-miterlimit="1.5" stroke-width="1.857" d="M57.622 53.428c-.393.934-.943 2.096-1.58 2.892-.273.341-.564.698-.991.846-.17.059-.36.075-.538.072-.385-.006-1.19-.043-1.645-.337-.2.24-.42.494-.65.755-1.034 1.181-2.228 2.545-2.27 3.822-.032.942.869 1.677 1.675 1.985 1.746.668 3.454.352 4.954-.735 2.641-1.914 3.957-5.318 4.91-8.307l.009-.03c.03-.091.076-.236.096-.332-1.179-.256-2.668-.466-3.97-.63ZM41.415 35.65c1.533.62.913 3.362.401 5.03-.21.687-1.017 2.01-1.659 1.993l-.005.017c1.383.605 2.497 1.198 3.566 1.767.96.511 1.883 1.003 2.931 1.465.87-1.388 1.725-3.78 1.887-4.515l.1-.448c.258-1.155.472-2.114.579-3.701a96.53 96.53 0 0 0-3.12-.618c-1.59-.298-3.205-.6-4.68-.99Z"/></g><defs><clipPath id="a"><path fill="#fff" d="M0 0h72v72H0z"/></clipPath></defs></svg>