<svg xmlns="http://www.w3.org/2000/svg" fill="none" viewBox="0 0 179 31"><path stroke="#fff" stroke-linecap="round" stroke-linejoin="round" stroke-miterlimit="1.5" stroke-width="4.05" d="M124.009 27.09c-20.269-6.697-42.424-1.802-62.619-.348-5.807.418-11.705 1.959-17.535 1.617-.76-.045-4.077-.193-4.752-1.635-.089-.188 2.46-1.038 3.7-1.407 2.411-.718 4.827-1.272 7.235-2.026 6.33-1.979 12.805-3.073 19.227-4.099 16.486-2.63 45.88-9.924 62.397-1.843.818.4-1.68-.01-2.52-.018-1.381-.013-2.762-.055-4.143-.078-4.505-.075-9.056-.34-13.549-.1-14.481.771-29.062.268-43.512 1.765-4.348.45-8.67 1.208-13.023 1.602-2.52.229-2.403.337-5.02.281-1.134-.024-4.25.69-3.4-.555 1.495-2.194 6.443-1.847 8.332-2.355 8.627-2.316 17.21-5.24 25.903-6.965 22.292-4.424 45.123-5.3 67.658-4.661 9.219.261 18.42-2.456 27.649-.894-22.407-4.163-45.473-2.574-67.806-1.58-25.145 1.12-50.268 2.086-75.385 3.967-10.31.772-20.298 4.589-30.664 4.732"/></svg>