<svg xmlns="http://www.w3.org/2000/svg" fill="none" viewBox="0 0 72 72"><path fill="#097FB5" fill-rule="evenodd" d="M34.857 44.519c-1.857-1.344-3.93-2.488-5.879-3.686-1.189-.731-2.324-1.952-3.585-2.554-4.752 8.443-9.61 16.89-13.545 25.725 2.944-1.06 6.592-2.425 9.126-4.194.588 3.236 1.828 6.282 2.606 9.456 3.17-8.667 8.22-16.567 11.509-25.186M50.934 40.101c-2.318 1.471-6.1 3.74-8.554 4.99 1.197 4.154 8.063 19.896 10.021 23.264.655-3.486 1.3-7.027 2.057-10.493 3.46 1.748 6.523 3.042 10.251 5.37-.827-1.692-11.242-19.228-13.775-23.13Z" clip-rule="evenodd"/><path fill="#097FB5" fill-rule="evenodd" d="M49.274 12.765c-1.469-.077-2.968.443-3.974 1.585.892-2.117-.955-5.025-2.759-6.014-3.137-1.722-8.317.529-8.68 4.188-2.892-5.471-10.88-2.829-10.552 3.244-.49-.306-.966-.498-1.521-.685-5.11-1.727-8.201 5.811-4.845 9.228-4.422 1.251-6.12 8.904-1.187 10.673-5.238 2.831-1.813 12.808 4.335 10.813-.407 1.73-.493 3.861.48 5.431 1.578 2.547 5.646 3.715 8.106 1.64-.041 5.28 7.863 6.053 10.03 1.854 3.671 4.678 10.718 2.874 11.235-3.25 1.224.436 2.614.812 3.907.482 4.02-1.025 5.807-5.863 3.767-9.273 4.715-.69 7.575-8.919.8-11.92 2.49-2.05 2.843-5.552.601-8.715-1.183-1.67-3.925-2.009-5.565-1.736.725-1.834.794-3.883-.387-5.55" clip-rule="evenodd"/><path fill="#fff" fill-rule="evenodd" d="M30.3 39.506c-1.858-1.344-3.93-2.488-5.88-3.686-1.189-.73-2.323-1.952-3.584-2.554-4.753 8.443-9.61 16.89-13.545 25.726 2.944-1.061 6.59-2.425 9.125-4.194.588 3.236 1.828 6.282 2.606 9.455 3.17-8.667 8.22-16.567 11.509-25.186" clip-rule="evenodd"/><path stroke="#222" stroke-linecap="round" stroke-linejoin="round" stroke-miterlimit="1.5" stroke-width="1.851" d="M30.3 39.506c-1.858-1.344-3.93-2.488-5.88-3.686-1.189-.73-2.323-1.952-3.584-2.554-4.753 8.443-9.61 16.89-13.545 25.726 2.944-1.061 6.59-2.425 9.125-4.194.588 3.236 1.828 6.282 2.606 9.455 3.17-8.667 8.22-16.567 11.509-25.186"/><path fill="#fff" fill-rule="evenodd" stroke="#222" stroke-linecap="round" stroke-linejoin="round" stroke-miterlimit="1.5" stroke-width="1.851" d="M46.377 35.089c-2.318 1.47-6.101 3.74-8.554 4.99 1.197 4.153 8.063 19.896 10.021 23.263.655-3.485 1.3-7.026 2.057-10.493 3.46 1.749 6.523 3.043 10.25 5.37-.826-1.692-11.241-19.228-13.774-23.13Z" clip-rule="evenodd"/><path fill="#fff" fill-rule="evenodd" d="M44.717 7.752c-1.469-.077-2.968.444-3.974 1.585.892-2.117-.955-5.025-2.759-6.014-3.137-1.721-8.317.53-8.68 4.188-2.892-5.47-10.88-2.828-10.552 3.244-.49-.306-.966-.498-1.521-.685-5.11-1.727-8.201 5.812-4.845 9.229-4.422 1.25-6.12 8.904-1.187 10.673-5.238 2.83-1.813 12.808 4.335 10.813-.407 1.73-.493 3.86.48 5.43 1.578 2.548 5.646 3.715 8.106 1.64-.041 5.28 7.863 6.053 10.03 1.855 3.671 4.677 10.718 2.874 11.235-3.25 1.224.435 2.613.811 3.907.481 4.02-1.025 5.807-5.863 3.767-9.273 4.715-.69 7.575-8.919.8-11.92 2.49-2.05 2.843-5.552.601-8.715-1.183-1.67-3.925-2.008-5.565-1.735.725-1.835.794-3.884-.387-5.55" clip-rule="evenodd"/><path stroke="#222" stroke-linecap="round" stroke-linejoin="round" stroke-miterlimit="1.5" stroke-width="1.851" d="M44.717 7.752c-1.469-.077-2.968.444-3.974 1.585.892-2.117-.955-5.025-2.759-6.014-3.137-1.721-8.317.53-8.68 4.188-2.892-5.47-10.88-2.828-10.552 3.244-.49-.306-.966-.498-1.521-.685-5.11-1.727-8.201 5.812-4.845 9.229-4.422 1.25-6.12 8.904-1.187 10.673-5.238 2.83-1.813 12.808 4.335 10.813-.407 1.73-.493 3.86.48 5.43 1.578 2.548 5.646 3.715 8.106 1.64-.041 5.28 7.863 6.053 10.03 1.855 3.671 4.677 10.718 2.874 11.235-3.25 1.224.435 2.613.811 3.907.481 4.02-1.025 5.807-5.863 3.767-9.273 4.715-.69 7.575-8.919.8-11.92 2.49-2.05 2.843-5.552.601-8.715-1.183-1.67-3.925-2.008-5.565-1.735.725-1.835.794-3.884-.387-5.55"/><path stroke="#222" stroke-linecap="round" stroke-linejoin="round" stroke-miterlimit="1.5" stroke-width="1.851" d="M37.04 12.506c-7.228-3.357-17.205 1.258-19.804 8.742-3.04 8.76-.841 17.888 8.179 22.114 6.668 3.123 15.236 2.085 20.468-3.225 8.007-8.125 5.284-20.908-4.404-25.68"/><path stroke="#222" stroke-linecap="round" stroke-linejoin="round" stroke-miterlimit="1.5" stroke-width="1.851" d="M27.797 24.608c2.11-1.553 4.016-3.29 5.013-5.469"/><path fill="#fff" fill-rule="evenodd" d="M32.92 19.14c-.479 5.163.798 10.335.165 15.493l-.166-15.494Z" clip-rule="evenodd"/><path stroke="#222" stroke-linecap="round" stroke-linejoin="round" stroke-miterlimit="1.5" stroke-width="1.851" d="M32.92 19.14c-.479 5.163.798 10.335.165 15.493"/><path fill="#fff" fill-rule="evenodd" d="M27.342 35.089c3.923-.337 7.957-.096 11.848-.456l-11.848.456Z" clip-rule="evenodd"/><path stroke="#222" stroke-linecap="round" stroke-linejoin="round" stroke-miterlimit="1.5" stroke-width="1.851" d="M27.342 35.089c3.923-.337 7.957-.096 11.848-.456"/></svg>